<svg width="42" height="42" viewBox="0 0 42 42" fill="none" xmlns="http://www.w3.org/2000/svg">
<path d="M20.972 41.9441C32.5546 41.9441 41.9441 32.5546 41.9441 20.972C41.9441 9.38949 32.5546 0 20.972 0C9.3895 0 0 9.38949 0 20.972C0 32.5546 9.3895 41.9441 20.972 41.9441Z" fill="#373C59"/>
<path d="M32.5547 13.776C31.7976 14.1023 31.0001 14.3256 30.1836 14.4399C30.563 14.4399 31.1083 13.7049 31.3692 13.4322C31.712 13.0187 31.9735 12.544 32.1398 12.0333C32.1398 12.0333 32.1398 11.9384 32.1398 11.9147C32.12 11.9033 32.0974 11.8973 32.0745 11.8973C32.0516 11.8973 32.0291 11.9033 32.0093 11.9147C31.1426 12.3733 30.2229 12.7237 29.2707 12.958C29.2423 12.9759 29.2095 12.9854 29.176 12.9854C29.1424 12.9854 29.1095 12.9759 29.0811 12.958C29.0082 12.8694 28.9289 12.7862 28.844 12.709C28.4499 12.3675 28.001 12.095 27.5162 11.9029C26.8716 11.6349 26.1734 11.5213 25.4771 11.5709C24.8016 11.6202 24.1431 11.8064 23.5419 12.1182C22.9406 12.43 22.4091 12.861 21.9798 13.3848C21.5361 13.9327 21.2202 14.5726 21.055 15.2579C20.9247 15.9075 20.9247 16.5764 21.055 17.2259C21.055 17.3326 21.055 17.3445 20.9602 17.3326C17.3396 16.9737 13.9812 15.2839 11.5353 12.5905C11.4286 12.4601 11.3693 12.4601 11.2863 12.5905C10.7878 13.4926 10.5969 14.5326 10.7423 15.553C10.8878 16.5733 11.3618 17.5185 12.0924 18.2455L12.6733 18.7553C12.0422 18.6998 11.4271 18.5269 10.8595 18.2455C10.7409 18.1743 10.6935 18.2455 10.6816 18.3403C10.6642 18.5177 10.6642 18.6964 10.6816 18.8738C10.7938 19.7231 11.1295 20.5273 11.6544 21.2042C12.1793 21.8812 12.8746 22.4066 13.6692 22.7268C13.8621 22.8148 14.0652 22.8785 14.2738 22.9165C13.6808 23.0097 13.0767 23.0097 12.4837 22.9165C12.3533 22.9165 12.3059 22.9165 12.3533 23.0824C12.6578 23.8822 13.1619 24.5908 13.8176 25.1407C14.4734 25.6907 15.2589 26.0636 16.0995 26.2241C16.2709 26.2355 16.4413 26.2592 16.6093 26.2952C15.8818 26.9548 15.0019 27.4232 14.0486 27.6586C12.803 28.1013 11.4769 28.2711 10.16 28.1565C9.9466 28.1565 9.91103 28.1565 9.85175 28.1565C9.79247 28.1565 9.85181 28.2395 9.91109 28.2988C10.1719 28.4648 10.4446 28.6189 10.7172 28.773C11.5424 29.2137 12.4129 29.5635 13.3136 29.8163C15.6249 30.5062 18.0762 30.5815 20.4255 30.0347C22.7748 29.488 24.9409 28.338 26.71 26.6983C27.9825 25.3165 28.9662 23.6945 29.6034 21.9274C30.2406 20.1603 30.5185 18.2838 30.4207 16.4079C30.4207 16.2656 30.5986 16.1826 30.7053 16.0997C31.4013 15.5578 32.0161 14.919 32.531 14.2028C32.6104 14.097 32.6522 13.9676 32.6495 13.8353V13.8353C32.6495 13.8353 32.6495 13.7405 32.5547 13.776Z" fill="white"/>
</svg>
